<?xml version="1.0" encoding="UTF-8" standalone="no"?>
<!-- Created with Inkscape (http://www.inkscape.org/) -->

<svg
   width="1100"
   height="1100"
   viewBox="0 0 291.04166 291.04166"
   version="1.1"
   id="svg9674"
   xml:space="preserve"
   inkscape:version="1.2.2 (b0a84865, 2022-12-01)"
   sodipodi:docname="hoba.svg"
   xmlns:inkscape="http://www.inkscape.org/namespaces/inkscape"
   xmlns:sodipodi="http://sodipodi.sourceforge.net/DTD/sodipodi-0.dtd"
   xmlns="http://www.w3.org/2000/svg"
   xmlns:svg="http://www.w3.org/2000/svg"><sodipodi:namedview
     id="namedview9676"
     pagecolor="#ffffff"
     bordercolor="#000000"
     borderopacity="0.25"
     inkscape:showpageshadow="2"
     inkscape:pageopacity="0.0"
     inkscape:pagecheckerboard="0"
     inkscape:deskcolor="#d1d1d1"
     inkscape:document-units="mm"
     showgrid="false"
     inkscape:zoom="0.55413381"
     inkscape:cx="498.97695"
     inkscape:cy="522.43699"
     inkscape:window-width="1470"
     inkscape:window-height="821"
     inkscape:window-x="0"
     inkscape:window-y="37"
     inkscape:window-maximized="1"
     inkscape:current-layer="layer1" /><defs
     id="defs9671"><inkscape:path-effect
       effect="bspline"
       id="path-effect12083"
       is_visible="true"
       lpeversion="1"
       weight="20"
       steps="2"
       helper_size="0"
       apply_no_weight="true"
       apply_with_weight="true"
       only_selected="false" /><inkscape:path-effect
       effect="bspline"
       id="path-effect12081"
       is_visible="true"
       lpeversion="1"
       weight="20"
       steps="2"
       helper_size="0"
       apply_no_weight="true"
       apply_with_weight="true"
       only_selected="false" /><inkscape:path-effect
       effect="bspline"
       id="path-effect12079"
       is_visible="true"
       lpeversion="1"
       weight="20"
       steps="2"
       helper_size="0"
       apply_no_weight="true"
       apply_with_weight="true"
       only_selected="false" /><inkscape:path-effect
       effect="bspline"
       id="path-effect12077"
       is_visible="true"
       lpeversion="1"
       weight="20"
       steps="2"
       helper_size="0"
       apply_no_weight="true"
       apply_with_weight="true"
       only_selected="false" /><inkscape:path-effect
       effect="bspline"
       id="path-effect12075"
       is_visible="true"
       lpeversion="1"
       weight="20"
       steps="2"
       helper_size="0"
       apply_no_weight="true"
       apply_with_weight="true"
       only_selected="false" /><inkscape:path-effect
       effect="bspline"
       id="path-effect12073"
       is_visible="true"
       lpeversion="1"
       weight="20"
       steps="2"
       helper_size="0"
       apply_no_weight="true"
       apply_with_weight="true"
       only_selected="false" /><inkscape:path-effect
       effect="bspline"
       id="path-effect12071"
       is_visible="true"
       lpeversion="1"
       weight="20"
       steps="2"
       helper_size="0"
       apply_no_weight="true"
       apply_with_weight="true"
       only_selected="false" /></defs><g
     inkscape:label="Layer 1"
     inkscape:groupmode="layer"
     id="layer1"><circle
       style="fill:#ffffff;fill-opacity:1;stroke:#62beff;stroke-width:0;stroke-opacity:0;stroke-dasharray:none"
       id="path237"
       cx="145.62894"
       cy="143.71906"
       r="134.16962" /><path
       style="opacity:1;fill:#000000;fill-opacity:0;stroke:#62beff;stroke-width:5.29166;stroke-dasharray:none"
       d="m 127.2082,74.802646 c -1.93459,0.225543 -6.9639,1.966457 -8.70458,2.192271 -1.74067,0.225813 -7.15685,-0.161057 -8.67239,0.03224 -1.51553,0.193293 -5.1908,1.740776 -6.54472,2.159907 -1.35391,0.419132 -5.802923,1.386307 -7.672785,1.773182 -1.869863,0.386874 -8.640094,1.740921 -10.252219,2.192245 -1.612126,0.451323 -4.513653,1.805368 -5.545202,2.192245 -1.031548,0.386877 -4.319946,1.354054 -5.545119,1.805395 -1.225173,0.45134 -5.287312,2.192257 -6.319183,2.804882 -1.03187,0.612626 -3.159658,2.546979 -3.836809,3.675632 -0.677152,1.128653 -2.611504,5.964536 -2.998343,7.125288 -0.386838,1.16074 -0.77371,3.28853 -1.643762,3.86835 -0.870053,0.57981 -5.705931,1.93385 -6.93141,2.70776 -1.22548,0.77391 -3.740136,4.06231 -5.51312,5.51292 -1.772984,1.45062 -9.897262,6.8668 -11.412678,8.99509 -1.515415,2.12829 -2.48259,9.47883 -2.933712,10.8646 -0.451122,1.38576 -2.192041,2.35294 -2.514636,2.96604 -0.322595,0.6131 -0.516029,3.32119 0.290586,4.15923 0.806616,0.83804 5.835931,3.15926 7.060898,3.96548 1.224967,0.80622 3.546187,3.32087 4.384521,3.86859 0.838334,0.54771 3.546429,1.32146 4.351977,2.74041 0.805548,1.41895 2.933333,9.15635 3.776566,11.14438 0.843233,1.98803 3.773285,6.17871 5.161495,6.82855 1.388209,0.64984 6.782378,0.35601 9.129785,2.01016 2.347408,1.65415 11.046876,11.87948 14.527549,14.87259 3.480672,2.99311 15.667092,10.73052 18.761945,11.63879 3.094856,0.90827 9.476316,-1.37557 11.120146,-0.67882 1.64384,0.69674 5.11759,7.15708 9.05134,9.3434 3.93375,2.18632 24.05834,8.84149 28.86323,10.5633 4.80489,1.7218 13.50947,5.39706 15.52718,5.88032 2.01772,0.48327 5.42118,-0.29047 6.25896,-0.96716 0.83779,-0.6767 2.46351,-3.96482 4.21793,-5.12594 1.75443,-1.16111 10.65244,-4.83638 13.13471,-6.15815 2.48226,-1.32177 8.47875,-5.57734 10.4453,-7.09256 1.96654,-1.51521 7.7696,-6.35109 9.2203,-7.67284 1.45069,-1.32175 4.35222,-4.41671 5.24553,-5.75403 0.89331,-1.33731 3.35139,-6.26578 5.09158,-7.6488 1.7402,-1.38302 9.71964,-4.74962 11.63092,-6.02354 1.91127,-1.27391 5.40044,-5.5515 6.65932,-6.52252 1.25889,-0.97102 5.32102,-2.5185 6.57798,-4.22681 1.25696,-1.70832 4.73879,-10.4129 5.70607,-12.2508 0.96728,-1.83789 3.2885,-4.15912 3.80428,-5.67392 0.51577,-1.51481 1.28952,-8.28505 1.51516,-9.89706 0.22565,-1.61201 0.80596,-4.51353 1.35423,-5.28774 0.54827,-0.77421 3.25636,-2.51512 3.86869,-3.48185 0.61233,-0.96674 1.57951,-5.02888 2.09532,-6.35088 0.51582,-1.32199 2.64361,-5.19069 1.83827,-6.77014 -0.80534,-1.57945 -7.76901,-7.18908 -9.67114,-8.15667 -1.90214,-0.96759 -6.35115,-1.16103 -7.76962,-1.64426 -1.41847,-0.48323 -5.4806,-3.19131 -6.73801,-3.64305 -1.2574,-0.45173 -4.73924,-0.45173 -7.41501,-0.93518 -2.67577,-0.48346 -15.24905,-3.384983 -18.63421,-3.997609 -3.38516,-0.612626 -11.12256,-1.386369 -13.44376,-2.22425 -2.32119,-0.83788 -8.51111,-5.093451 -11.12251,-5.996475 -2.61139,-0.903024 -12.08972,-2.063636 -14.15305,-2.675788 -2.06333,-0.612151 -4.96486,-3.126804 -7.47947,-3.933138 -2.51462,-0.806333 -14.70103,-3.127555 -17.50581,-3.804462 -2.80478,-0.676906 -7.44723,-2.417825 -9.31718,-2.77265 -1.86994,-0.354826 -8.44674,-0.741695 -10.38133,-0.516152 z"
       id="path10125"
       inkscape:path-effect="#path-effect12071"
       inkscape:original-d="m 126.94947,74.448085 c -1.67544,0.581305 -6.70475,2.322221 -8.38219,2.901526 -1.8044,-0.127957 -7.22058,-0.514827 -9.02698,-0.644784 -1.22409,0.516827 -4.89936,2.06431 -6.12545,2.579137 -1.482,0.323392 -5.93101,1.290566 -7.415013,1.611958 -2.255744,0.452349 -9.025975,1.806396 -11.283719,2.256745 -0.966176,0.452348 -3.867703,1.806394 -4.835879,2.256742 -1.095133,0.323392 -4.383531,1.290569 -5.480664,1.611961 -1.353046,0.581305 -5.415185,2.322222 -6.770231,2.901527 -0.708262,0.645784 -2.83605,2.580137 -3.546312,3.223921 -0.643784,1.61296 -2.578136,6.448843 -3.22392,8.059802 -0.127957,0.71026 -0.514827,2.83805 -0.644784,3.54631 -1.61096,0.45235 -6.446839,1.80639 -8.059799,2.25674 -0.837219,1.09713 -3.351876,4.38553 -4.191095,5.48067 -2.707093,1.80639 -10.831372,7.22257 -13.540465,9.02697 -0.321392,2.45118 -1.288566,9.80172 -1.611958,12.2509 -0.579306,0.32339 -2.320223,1.29057 -2.901529,1.61196 -0.06348,0.9037 -0.256914,3.61179 -0.322392,4.51349 1.677439,0.77474 6.706754,3.09596 8.382193,3.8687 0.774741,0.83922 3.095962,3.35387 3.868703,4.19109 0.903697,0.25891 3.61179,1.03266 4.513487,1.28957 0.710262,2.58014 2.838049,10.31754 3.546311,12.89568 0.97758,1.39807 3.90763,5.58876 4.88481,6.98647 1.799207,-0.0977 7.193374,-0.39155 8.990278,-0.48971 2.897917,3.40616 11.597385,13.63149 14.495407,17.03786 4.063139,2.58013 16.249555,10.31754 20.310694,12.89567 2.128847,-0.76153 8.510307,-3.04537 10.638937,-3.80754 1.15903,2.15529 4.63278,8.61563 5.79082,10.76955 6.70931,2.21893 26.8339,8.8741 33.54099,11.09195 2.90253,1.22609 11.60711,4.90135 14.50764,6.12544 1.13518,-0.25774 4.53864,-1.03148 5.67244,-1.28956 0.54201,-1.09546 2.16773,-4.38359 2.70976,-5.48067 2.96701,-1.22409 11.86502,-4.89936 14.83003,-6.12545 1.99983,-1.41752 7.99632,-5.6731 9.99415,-7.09262 1.93535,-1.61096 7.73841,-6.44684 9.67176,-8.0598 0.96818,-1.03065 3.8697,-4.12562 4.83588,-5.15827 0.81973,-1.64278 3.27781,-6.57125 4.09717,-8.21488 2.66084,-1.12226 10.64029,-4.48885 13.29976,-5.61128 1.16323,-1.42549 4.6524,-5.70307 5.81529,-7.12932 1.35505,-0.51482 5.41718,-2.0623 6.77023,-2.57913 1.16161,-2.90053 4.64345,-11.60511 5.80306,-14.50764 0.77474,-0.77274 3.09596,-3.09397 3.8687,-3.86871 0.25891,-2.25574 1.03266,-9.02598 1.28957,-11.28372 0.19444,-0.96618 0.77474,-3.8677 0.96718,-4.83588 0.9037,-0.5793 3.61178,-2.32022 4.51348,-2.90152 0.32339,-1.35305 1.29057,-5.41519 1.61196,-6.77024 0.71026,-1.28857 2.83805,-5.15727 3.54631,-6.44783 -2.32022,-1.86888 -9.28389,-7.4785 -11.60611,-9.34937 -1.482,-0.0635 -5.93101,-0.25692 -7.41501,-0.3224 -1.35305,-0.9017 -5.41518,-3.60979 -6.77023,-4.51348 -1.15961,0.001 -4.64145,0.001 -5.80306,0 -4.1901,-0.96618 -16.76338,-3.867709 -20.95548,-4.835879 -2.57814,-0.25692 -10.31554,-1.03066 -12.89568,-1.289573 -2.06231,-1.417524 -8.25223,-5.673097 -10.31654,-7.092621 -3.15844,-0.385871 -12.63677,-1.546482 -15.79721,-1.934353 -0.96618,-0.837219 -3.8677,-3.351876 -4.83588,-4.191095 -4.06114,-0.772741 -16.24755,-3.093963 -20.31069,-3.868704 -1.54648,-0.579306 -6.18893,-2.320223 -7.73741,-2.901529 -2.19126,-0.127956 -8.76806,-0.514825 -10.96132,-0.644781 z"
       sodipodi:nodetypes="ccccccccccccccccccccccccccccccccccccccccccccccccccccccccccc" /><path
       style="opacity:1;fill:#000000;fill-opacity:0;stroke:#62beff;stroke-width:3.81;stroke-dasharray:none"
       d="m 36.51634,121.72133 c 4.032916,1.57216 16.123924,6.28563 18.170021,6.23297 2.046098,-0.0527 2.239533,-5.08198 3.271781,-5.72713 1.032247,-0.64516 7.028738,0.51545 8.221338,1.064 1.192599,0.54855 2.353211,2.67634 3.288392,3.15943 0.935181,0.48309 5.384192,1.25683 7.447505,2.28878 2.063314,1.03195 9.994153,6.44814 11.444466,7.96357 1.450313,1.51543 2.224053,5.19069 3.062535,6.86713 0.838483,1.67643 5.094055,8.05979 7.512089,9.05862 2.418033,0.99882 12.670103,0.61195 15.958553,1.90199 3.28845,1.29005 12.76678,9.41433 16.50659,11.41288 3.7398,1.99854 16.69996,5.86725 20.85874,6.6086 4.15879,0.74134 16.15177,1.32165 19.50466,1.54735 3.3529,0.2257 11.47719,0.99944 14.15277,0.64465 2.67559,-0.35478 10.60644,-3.25631 12.47595,-4.61012 1.86951,-1.35381 5.1579,-6.57656 7.28596,-8.25323 2.12807,-1.67667 11.6064,-6.51255 13.50822,-8.44647 1.90182,-1.93392 3.83618,-8.70416 4.48101,-10.21968 0.64484,-1.51552 2.5792,-3.83674 3.1599,-4.28823 0.5807,-0.45149 2.12817,-0.83836 3.44974,-1.61209 1.32157,-0.77373 7.70493,-5.0293 8.76871,-6.51173 1.06378,-1.48242 1.06378,-6.12487 3.08315,-7.55591 2.01937,-1.43103 14.13237,-5.37076 18.169,-6.68367"
       id="path10607"
       inkscape:path-effect="#path-effect12083"
       inkscape:original-d="m 36.51634,121.72133 c 4.032862,1.5723 16.12387,6.28577 20.151677,7.85578 0.06548,-1.67544 0.258914,-6.70475 0.322392,-8.38219 1.99983,0.38787 7.996321,1.54848 9.994151,1.93435 0.38787,0.71026 1.548481,2.83805 1.934351,3.54631 1.484003,0.25891 5.933013,1.03266 7.415016,1.28957 2.644614,1.8064 10.575457,7.22258 13.218071,9.02698 0.258914,1.22609 1.032654,4.90135 1.289568,6.12544 1.419525,2.12879 5.675098,8.51215 7.092623,10.63894 3.418351,-0.12796 13.670421,-0.51482 17.086771,-0.64478 3.16044,2.70909 12.63877,10.83337 15.79721,13.54046 4.32105,1.29057 17.28121,5.15927 21.60026,6.44784 3.99866,0.19443 15.99164,0.77474 19.9883,0.96717 2.70909,0.25891 10.83338,1.03266 13.54047,1.28957 2.64461,-0.96618 10.57546,-3.8677 13.21807,-4.83588 1.09713,-1.73992 4.38553,-6.96266 5.48066,-8.70458 3.16044,-1.61096 12.63877,-6.44684 15.79721,-8.0598 0.64578,-2.25574 2.58014,-9.02598 3.22392,-11.28372 0.64578,-0.77274 2.58014,-3.09396 3.22392,-3.8687 0.51683,-0.12796 2.0643,-0.51483 2.57913,-0.64479 2.12879,-1.41752 8.51215,-5.6731 10.63894,-7.09262 0.001,-1.54648 0.001,-6.18893 0,-7.73741 4.03884,-1.31327 16.15184,-5.253 20.18837,-6.56623"
       sodipodi:nodetypes="ccccccccccccccccccccccc" /><path
       style="opacity:1;fill:#000000;fill-opacity:0;stroke:#62beff;stroke-width:3.81;stroke-dasharray:none"
       d="m 137.5884,115.39187 c 1.80575,-0.96737 7.22194,-3.86891 9.02742,-4.70713 1.80547,-0.83823 7.22166,-2.96601 9.12411,-2.93344 1.90246,0.0326 7.89895,2.35381 9.51046,2.38572 1.61151,0.0319 5.28679,-2.09587 7.44725,-1.99889 2.16046,0.097 11.44535,2.80507 14.18561,3.32075 2.74026,0.51568 9.89737,0.90256 11.3158,1.25771 1.41843,0.35516 2.77247,2.09608 3.22296,2.67528"
       id="path10609"
       inkscape:path-effect="#path-effect12075"
       inkscape:original-d="m 137.5884,115.39187 c 1.80639,-0.96618 7.22258,-3.86771 9.02697,-4.83589 1.8064,-0.70826 7.22258,-2.83605 9.02698,-3.54631 1.99983,0.77474 7.99632,3.09597 9.99415,3.86871 1.22609,-0.70826 4.90136,-2.83605 6.12545,-3.54631 3.09596,0.90369 12.38085,3.61178 15.47481,4.51348 2.3867,0.12996 9.54381,0.51683 11.92851,0.64479 0.45235,0.5813 1.80639,2.32222 2.25674,2.90153" /><path
       style="opacity:1;fill:#000000;fill-opacity:0;stroke:#62beff;stroke-width:3.81;stroke-dasharray:none"
       d="m 73.754791,110.23359 c 3.352992,-2.70819 13.411623,-10.832462 17.119383,-12.831343 3.70776,-1.998881 15.894176,-5.867586 19.150256,-7.060442 3.25608,-1.192856 10.60661,-4.481252 13.28278,-4.900211 2.67616,-0.418959 11.38074,0.354782 14.28119,0.6126"
       id="path10611"
       inkscape:path-effect="#path-effect12073"
       inkscape:original-d="m 73.754791,110.23359 c 3.353877,-2.70709 13.412506,-10.831369 16.764383,-13.540459 4.063139,-1.28857 16.249556,-5.157274 20.310696,-6.447842 2.45118,-1.095133 9.80171,-4.383531 12.25089,-5.480664 2.90253,0.258914 11.60711,1.032655 14.50764,1.289569" /><path
       style="opacity:1;fill:#000000;fill-opacity:0;stroke:#62beff;stroke-width:3.81;stroke-dasharray:none"
       d="m 184.33524,131.83386 c 2.38597,-1.48317 9.54307,-5.93219 11.70335,-6.86712 2.16027,-0.93492 7.96333,-2.09553 9.05898,-2.5144 1.09566,-0.41887 1.8694,-1.77292 2.1275,-2.22459"
       id="path10613"
       inkscape:path-effect="#path-effect12077"
       inkscape:original-d="m 184.33524,131.83386 c 2.3867,-1.482 9.5438,-5.93102 11.9285,-7.41502 1.93535,-0.38587 7.73841,-1.54648 9.67176,-1.93435 0.25891,-0.45035 1.03266,-1.80439 1.28957,-2.25674" /><path
       style="opacity:1;fill:#000000;fill-opacity:0;stroke:#62beff;stroke-width:3.81;stroke-dasharray:none"
       d="m 96.967014,115.71426 c 5.997486,-0.0645 23.986956,-0.25792 27.436236,1.1612 3.44929,1.41913 6.15737,10.1237 7.0597,13.02404"
       id="path10615"
       inkscape:path-effect="#path-effect12079"
       inkscape:original-d="m 96.967014,115.71426 c 5.997496,-0.0635 23.986966,-0.25691 29.982456,-0.32239 0.9037,2.90252 3.61178,11.6071 4.51348,14.50763" /><path
       style="opacity:1;fill:#000000;fill-opacity:0;stroke:#62beff;stroke-width:3.81;stroke-dasharray:none"
       d="m 126.94947,139.89366 c 4.90137,0.0645 19.60243,0.25793 24.08376,0.80613 4.48134,0.54821 16.66776,3.64318 20.14956,4.35236 3.4818,0.70919 12.18638,1.8698 15.0868,2.25652"
       id="path10617"
       inkscape:path-effect="#path-effect12081"
       inkscape:original-d="m 126.94947,139.89366 c 4.90136,0.0655 19.60242,0.25891 24.50178,0.32239 4.06314,1.03265 16.24956,4.12762 20.3107,5.15827 2.90253,0.38787 11.60711,1.54848 14.50764,1.93435" /><path
       style="opacity:1;fill:#000000;fill-opacity:0;stroke:#62beff;stroke-width:2.286;stroke-dasharray:none"
       d="M 54.909272,128.43994 V 166.6377"
       id="path15795" /><path
       style="opacity:1;fill:#000000;fill-opacity:0;stroke:#62beff;stroke-width:2.286;stroke-dasharray:none"
       d="m 97.881742,151.83607 v 43.44994"
       id="path15797" /><path
       style="opacity:1;fill:#000000;fill-opacity:0;stroke:#62beff;stroke-width:2.286;stroke-dasharray:none"
       d="m 115.07073,154.7009 v 52.04443"
       id="path15799" /><path
       style="opacity:1;fill:#000000;fill-opacity:0;stroke:#62beff;stroke-width:2.286;stroke-dasharray:none"
       d="M 167.59264,222.02443 V 173.79977"
       id="path15801" /><path
       style="opacity:1;fill:#000000;fill-opacity:0;stroke:#62beff;stroke-width:2.286;stroke-dasharray:none"
       d="m 205.31291,162.34045 v 33.90049"
       id="path15803" /><path
       style="opacity:1;fill:#000000;fill-opacity:0;stroke:#62beff;stroke-width:2.286;stroke-dasharray:none"
       d="m 226.32168,139.89927 v 37.2428"
       id="path15805" /><path
       style="opacity:1;fill:#000000;fill-opacity:0;stroke:#62beff;stroke-width:2.286;stroke-dasharray:none"
       d="m 66.368595,124.62017 v 47.26971"
       id="path19437" /></g></svg>
