<?xml version="1.0" encoding="UTF-8" standalone="no"?>
<!-- Created with Inkscape (http://www.inkscape.org/) -->

<svg
   width="1000"
   height="600"
   viewBox="0 0 264.58333 158.75"
   version="1.1"
   id="svg9674"
   xml:space="preserve"
   inkscape:version="1.2.2 (b0a84865, 2022-12-01)"
   sodipodi:docname="hoba.svg"
   xmlns:inkscape="http://www.inkscape.org/namespaces/inkscape"
   xmlns:sodipodi="http://sodipodi.sourceforge.net/DTD/sodipodi-0.dtd"
   xmlns="http://www.w3.org/2000/svg"
   xmlns:svg="http://www.w3.org/2000/svg"><sodipodi:namedview
     id="namedview9676"
     pagecolor="#ffffff"
     bordercolor="#000000"
     borderopacity="0.25"
     inkscape:showpageshadow="2"
     inkscape:pageopacity="0.0"
     inkscape:pagecheckerboard="0"
     inkscape:deskcolor="#d1d1d1"
     inkscape:document-units="mm"
     showgrid="false"
     inkscape:zoom="0.55413381"
     inkscape:cx="480.93077"
     inkscape:cy="304.07818"
     inkscape:window-width="1470"
     inkscape:window-height="821"
     inkscape:window-x="0"
     inkscape:window-y="37"
     inkscape:window-maximized="1"
     inkscape:current-layer="layer1" /><defs
     id="defs9671"><inkscape:path-effect
       effect="bspline"
       id="path-effect12083"
       is_visible="true"
       lpeversion="1"
       weight="20"
       steps="2"
       helper_size="0"
       apply_no_weight="true"
       apply_with_weight="true"
       only_selected="false" /><inkscape:path-effect
       effect="bspline"
       id="path-effect12081"
       is_visible="true"
       lpeversion="1"
       weight="20"
       steps="2"
       helper_size="0"
       apply_no_weight="true"
       apply_with_weight="true"
       only_selected="false" /><inkscape:path-effect
       effect="bspline"
       id="path-effect12079"
       is_visible="true"
       lpeversion="1"
       weight="20"
       steps="2"
       helper_size="0"
       apply_no_weight="true"
       apply_with_weight="true"
       only_selected="false" /><inkscape:path-effect
       effect="bspline"
       id="path-effect12077"
       is_visible="true"
       lpeversion="1"
       weight="20"
       steps="2"
       helper_size="0"
       apply_no_weight="true"
       apply_with_weight="true"
       only_selected="false" /><inkscape:path-effect
       effect="bspline"
       id="path-effect12075"
       is_visible="true"
       lpeversion="1"
       weight="20"
       steps="2"
       helper_size="0"
       apply_no_weight="true"
       apply_with_weight="true"
       only_selected="false" /><inkscape:path-effect
       effect="bspline"
       id="path-effect12073"
       is_visible="true"
       lpeversion="1"
       weight="20"
       steps="2"
       helper_size="0"
       apply_no_weight="true"
       apply_with_weight="true"
       only_selected="false" /><inkscape:path-effect
       effect="bspline"
       id="path-effect12071"
       is_visible="true"
       lpeversion="1"
       weight="20"
       steps="2"
       helper_size="0"
       apply_no_weight="true"
       apply_with_weight="true"
       only_selected="false" /></defs><g
     inkscape:label="Layer 1"
     inkscape:groupmode="layer"
     id="layer1"><path
       style="opacity:1;fill:#000000;fill-opacity:0;stroke:#62beff;stroke-width:5.29166;stroke-dasharray:none"
       d="m 111.9291,6.5241611 c -1.93459,0.2255428 -6.9639,1.9664572 -8.70458,2.1922707 -1.74067,0.2258135 -7.156859,-0.1610567 -8.672389,0.032237 -1.51553,0.1932938 -5.190798,1.7407751 -6.544717,2.1599071 -1.353919,0.419132 -5.802929,1.386307 -7.672791,1.773182 -1.869863,0.386874 -8.640094,1.740921 -10.252219,2.192245 -1.612126,0.451323 -4.513653,1.805368 -5.545202,2.192245 -1.031548,0.386877 -4.319946,1.354054 -5.545119,1.805395 -1.225173,0.45134 -5.287312,2.192257 -6.319183,2.804882 -1.03187,0.612626 -3.159658,2.546979 -3.836809,3.675632 -0.677152,1.128653 -2.611504,5.964534 -2.998343,7.125283 -0.386839,1.160748 -0.773709,3.288534 -1.643762,3.86835 -0.870052,0.579815 -5.705931,1.933859 -6.931411,2.707768 -1.225481,0.773908 -3.740138,4.06231 -5.513121,5.512923 -1.772984,1.450613 -9.897263,6.866795 -11.412677,8.995086 -1.515414,2.128291 -2.482589,9.478833 -2.933712,10.864597 -0.451122,1.385765 -2.192039,2.352941 -2.514634,2.966043 -0.322595,0.613101 -0.516031,3.321195 0.290585,4.15923 0.806616,0.838035 5.835931,3.159255 7.060898,3.965475 1.224966,0.806221 3.546188,3.320874 4.384522,3.868591 0.838334,0.547717 3.546427,1.321459 4.351975,2.740407 0.805548,1.418947 2.933335,9.156355 3.776566,11.144382 0.843232,1.988027 3.773282,6.178718 5.161494,6.828558 1.388213,0.64984 6.782379,0.35601 9.129786,2.01016 2.347407,1.65415 11.046875,11.87948 14.527548,14.87259 3.480674,2.99311 15.667094,10.73052 18.761947,11.63879 3.094853,0.90827 9.476312,-1.37557 11.120152,-0.67882 1.64384,0.69675 5.117587,7.15708 9.051336,9.3434 3.93375,2.18633 24.05834,8.84149 28.86323,10.5633 4.80489,1.7218 13.50947,5.39706 15.52718,5.88032 2.01772,0.48327 5.42118,-0.29047 6.25896,-0.96716 0.83779,-0.6767 2.46351,-3.96482 4.21793,-5.12594 1.75443,-1.16111 10.65244,-4.83638 13.13471,-6.15815 2.48226,-1.32177 8.47875,-5.57734 10.4453,-7.09256 1.96654,-1.51521 7.7696,-6.35109 9.2203,-7.67284 1.45069,-1.32175 4.35222,-4.41671 5.24553,-5.75402 0.89331,-1.33731 3.35139,-6.26579 5.09158,-7.64881 1.7402,-1.38303 9.71964,-4.74962 11.63092,-6.02354 1.91127,-1.27391 5.40044,-5.5515 6.65933,-6.52252 1.25888,-0.971024 5.32101,-2.518502 6.57797,-4.226818 1.25695,-1.708316 4.73879,-10.412901 5.70607,-12.250795 0.96728,-1.837893 3.2885,-4.159119 3.80428,-5.673925 0.51577,-1.514805 1.28952,-8.285038 1.51516,-9.897051 0.22565,-1.612013 0.80596,-4.513539 1.35423,-5.287746 0.54827,-0.774207 3.25635,-2.515116 3.86869,-3.481851 0.61233,-0.966735 1.57951,-5.028881 2.09532,-6.350876 0.51582,-1.321994 2.64361,-5.190693 1.83827,-6.770144 -0.80534,-1.579451 -7.769,-7.189075 -9.67114,-8.15667 -1.90214,-0.967595 -6.35115,-1.161035 -7.76962,-1.644262 -1.41846,-0.483227 -5.4806,-3.191311 -6.738,-3.643044 -1.25741,-0.451734 -4.73925,-0.451734 -7.41502,-0.935188 -2.67577,-0.483454 -15.24905,-3.384981 -18.63421,-3.997607 -3.38516,-0.612626 -11.12256,-1.386367 -13.44376,-2.224247 -2.32119,-0.83788 -8.51111,-5.093451 -11.12251,-5.996475 -2.61139,-0.903024 -12.08972,-2.063636 -14.15305,-2.675788 -2.06333,-0.612151 -4.96486,-3.126804 -7.47947,-3.933138 C 146.6188,12.811092 134.43239,10.48987 131.62761,9.8129636 128.82283,9.1360571 124.18038,7.3951384 122.31043,7.0403129 120.44049,6.6854873 113.86369,6.2986182 111.9291,6.5241611 Z"
       id="path10125"
       inkscape:path-effect="#path-effect12071"
       inkscape:original-d="m 111.67037,6.1696002 c -1.67544,0.5813052 -6.70475,2.3222208 -8.38219,2.901526 -1.8044,-0.1279568 -7.220585,-0.5148272 -9.026981,-0.644784 -1.22409,0.5168274 -4.899358,2.0643098 -6.125448,2.5791368 -1.482003,0.323392 -5.931013,1.290566 -7.415016,1.611958 -2.255744,0.452349 -9.025975,1.806396 -11.283719,2.256745 -0.966176,0.452348 -3.867703,1.806394 -4.835879,2.256742 -1.095133,0.323392 -4.383531,1.290569 -5.480664,1.611961 -1.353046,0.581305 -5.415185,2.322222 -6.770231,2.901527 -0.708262,0.645784 -2.83605,2.580137 -3.546312,3.223921 -0.643784,1.61296 -2.578136,6.448841 -3.22392,8.059801 -0.127957,0.710262 -0.514827,2.838048 -0.644784,3.54631 -1.61096,0.452348 -6.446839,1.806392 -8.059799,2.25674 -0.837219,1.097134 -3.351876,4.385536 -4.191095,5.48067 -2.707093,1.806394 -10.831372,7.222576 -13.540465,9.02697 -0.321392,2.45118 -1.288566,9.801722 -1.611958,12.250902 -0.579306,0.323392 -2.320223,1.290568 -2.901529,1.61196 -0.06348,0.903698 -0.256914,3.611792 -0.322392,4.51349 1.677439,0.77474 6.706754,3.09596 8.382193,3.8687 0.774741,0.839218 3.095962,3.353872 3.868703,4.19109 0.903697,0.258914 3.61179,1.032656 4.513487,1.28957 0.710262,2.580136 2.838049,10.317544 3.546311,12.89568 0.97758,1.398066 3.90763,5.588757 4.88481,6.986474 1.799207,-0.0977 7.193374,-0.39155 8.990278,-0.48971 2.897917,3.40616 11.597385,13.63149 14.495407,17.03786 4.063139,2.58013 16.249555,10.31754 20.310694,12.89567 2.128848,-0.76153 8.510307,-3.04537 10.638936,-3.80754 1.159032,2.15529 4.632779,8.61563 5.790826,10.76955 6.709307,2.21893 26.833897,8.8741 33.540987,11.09195 2.90253,1.22609 11.60711,4.90135 14.50764,6.12544 1.13518,-0.25774 4.53864,-1.03148 5.67244,-1.28956 0.54201,-1.09546 2.16773,-4.38359 2.70976,-5.48067 2.96701,-1.22409 11.86502,-4.89936 14.83003,-6.12545 1.99983,-1.41752 7.99632,-5.6731 9.99415,-7.09262 1.93535,-1.61096 7.73841,-6.44684 9.67176,-8.0598 0.96818,-1.03065 3.8697,-4.12562 4.83588,-5.15827 0.81973,-1.64278 3.27781,-6.57125 4.09717,-8.21488 2.66084,-1.12226 10.64029,-4.48885 13.29976,-5.61128 1.16323,-1.42549 4.6524,-5.70307 5.81529,-7.12932 1.35505,-0.514827 5.41718,-2.062307 6.77023,-2.579134 1.16161,-2.900528 4.64345,-11.605112 5.80306,-14.50764 0.77474,-0.772742 3.09596,-3.093968 3.8687,-3.86871 0.25891,-2.255744 1.03266,-9.025976 1.28957,-11.28372 0.19444,-0.966176 0.77474,-3.867704 0.96718,-4.83588 0.9037,-0.579304 3.61178,-2.320216 4.51348,-2.90152 0.32339,-1.353048 1.29057,-5.415194 1.61196,-6.770242 0.71026,-1.288566 2.83805,-5.157264 3.54631,-6.44783 -2.32022,-1.868874 -9.28389,-7.478496 -11.60611,-9.34937 -1.482,-0.06348 -5.93101,-0.25692 -7.41501,-0.3224 -1.35305,-0.901696 -5.41518,-3.609784 -6.77023,-4.51348 -1.15961,10e-4 -4.64145,10e-4 -5.80306,0 -4.1901,-0.966176 -16.76338,-3.867706 -20.95548,-4.835882 -2.57814,-0.256914 -10.31554,-1.030655 -12.89568,-1.289569 -2.06231,-1.417524 -8.25223,-5.673097 -10.31654,-7.092621 -3.15844,-0.385871 -12.63677,-1.546482 -15.79721,-1.934353 -0.96618,-0.837219 -3.8677,-3.351876 -4.83588,-4.191095 -4.06114,-0.772741 -16.24755,-3.093963 -20.31069,-3.8687038 -1.54648,-0.5793058 -6.18893,-2.3202232 -7.73741,-2.901529 -2.19126,-0.1279562 -8.76806,-0.5148248 -10.96132,-0.644781 z"
       sodipodi:nodetypes="ccccccccccccccccccccccccccccccccccccccccccccccccccccccccccc" /><path
       style="opacity:1;fill:#000000;fill-opacity:0;stroke:#62beff;stroke-width:3.81;stroke-dasharray:none"
       d="m 21.237238,53.442843 c 4.032917,1.572163 16.123924,6.285633 18.170021,6.232969 2.046097,-0.05266 2.239533,-5.08198 3.271781,-5.727132 1.032247,-0.645153 7.028739,0.515458 8.221338,1.064009 1.1926,0.54855 2.353211,2.676336 3.288392,3.159428 0.935181,0.483091 5.384191,1.256833 7.447504,2.288781 2.063313,1.031948 9.994156,6.448136 11.444468,7.963566 1.450312,1.515429 2.224052,5.190693 3.062534,6.867129 0.838482,1.676435 5.094056,8.059799 7.512091,9.05862 2.418035,0.998821 12.670099,0.611953 15.958551,1.901997 3.288452,1.290045 12.766782,9.414323 16.506592,11.412871 3.7398,1.998549 16.69996,5.867259 20.85874,6.608609 4.15879,0.74134 16.15177,1.32165 19.50466,1.54735 3.3529,0.2257 11.47719,0.99944 14.15277,0.64465 2.67559,-0.35478 10.60644,-3.25631 12.47595,-4.61012 1.86951,-1.35381 5.1579,-6.576563 7.28597,-8.253232 2.12806,-1.676669 11.60639,-6.512551 13.50821,-8.446473 1.90183,-1.933922 3.83618,-8.704156 4.48101,-10.219677 0.64484,-1.515522 2.5792,-3.836746 3.1599,-4.288232 0.5807,-0.451485 2.12817,-0.838358 3.44974,-1.612088 1.32157,-0.773731 7.70493,-5.029301 8.76871,-6.511727 1.06378,-1.482427 1.06378,-6.124873 3.08315,-7.555909 2.01936,-1.431036 14.13237,-5.370766 18.169,-6.683671"
       id="path10607"
       inkscape:path-effect="#path-effect12083"
       inkscape:original-d="m 21.237238,53.442843 c 4.032862,1.572303 16.12387,6.285773 20.151677,7.855783 0.06548,-1.675438 0.258914,-6.704754 0.322392,-8.382192 1.99983,0.38787 7.996321,1.548482 9.994151,1.934352 0.38787,0.710262 1.548481,2.838048 1.934351,3.54631 1.484003,0.258914 5.933013,1.032656 7.415016,1.28957 2.644614,1.806396 10.575457,7.222584 13.218071,9.02698 0.258914,1.226088 1.032654,4.901352 1.289568,6.12544 1.419525,2.128788 5.675098,8.512152 7.092623,10.63894 3.418354,-0.127956 13.670418,-0.514824 17.086772,-0.64478 3.160441,2.709092 12.638771,10.833368 15.797211,13.54046 4.32105,1.290569 17.28121,5.159274 21.60026,6.447844 3.99866,0.19443 15.99164,0.77474 19.9883,0.96717 2.70909,0.25891 10.83338,1.03266 13.54047,1.28957 2.64461,-0.96618 10.57546,-3.8677 13.21807,-4.83588 1.09713,-1.73992 4.38553,-6.962667 5.48066,-8.704584 3.16044,-1.61096 12.63877,-6.44684 15.79721,-8.0598 0.64578,-2.255744 2.58014,-9.025976 3.22392,-11.28372 0.64578,-0.77274 2.58014,-3.09396 3.22392,-3.8687 0.51683,-0.127958 2.0643,-0.514832 2.57913,-0.64479 2.12879,-1.417524 8.51215,-5.673096 10.63894,-7.09262 0.001,-1.546482 0.001,-6.188928 0,-7.73741 4.03884,-1.313272 16.15184,-5.253003 20.18837,-6.566225"
       sodipodi:nodetypes="ccccccccccccccccccccccc" /><path
       style="opacity:1;fill:#000000;fill-opacity:0;stroke:#62beff;stroke-width:3.80999985;stroke-dasharray:none"
       d="m 122.3093,47.113384 c 1.80575,-0.96737 7.22194,-3.868907 9.02742,-4.707133 1.80548,-0.838227 7.22166,-2.96601 9.12411,-2.933434 1.90246,0.03258 7.89895,2.353802 9.51046,2.385717 1.61152,0.03191 5.28679,-2.095871 7.44725,-1.998889 2.16046,0.09698 11.44535,2.805071 14.18561,3.320752 2.74026,0.515682 9.89737,0.902556 11.3158,1.257714 1.41843,0.355158 2.77247,2.096074 3.22296,2.675273"
       id="path10609"
       inkscape:path-effect="#path-effect12075"
       inkscape:original-d="m 122.3093,47.113384 c 1.80639,-0.966178 7.22258,-3.867712 9.02697,-4.83589 1.8064,-0.708262 7.22258,-2.836048 9.02698,-3.54631 1.99983,0.774742 7.99632,3.095968 9.99415,3.86871 1.22609,-0.708262 4.90136,-2.836048 6.12545,-3.54631 3.09596,0.903696 12.38085,3.611784 15.47481,4.51348 2.3867,0.129958 9.54381,0.516832 11.92851,0.64479 0.45235,0.581306 1.80639,2.322224 2.25674,2.90153" /><path
       style="opacity:1;fill:#000000;fill-opacity:0;stroke:#62beff;stroke-width:3.80999985;stroke-dasharray:none"
       d="m 58.475689,41.955104 c 3.352993,-2.708186 13.411623,-10.832462 17.119382,-12.831343 3.70776,-1.998882 15.894175,-5.867586 19.150254,-7.060441 3.25608,-1.192855 10.606615,-4.481253 13.282785,-4.900211 2.67616,-0.418959 11.38074,0.354782 14.28119,0.6126"
       id="path10611"
       inkscape:path-effect="#path-effect12073"
       inkscape:original-d="m 58.475689,41.955104 c 3.353877,-2.707092 13.412506,-10.831368 16.764383,-13.54046 4.063139,-1.288568 16.249554,-5.157272 20.310693,-6.44784 2.451179,-1.095133 9.801715,-4.383531 12.250895,-5.480664 2.90253,0.258914 11.60711,1.032655 14.50764,1.289569" /><path
       style="opacity:1;fill:#000000;fill-opacity:0;stroke:#62beff;stroke-width:3.80999985;stroke-dasharray:none"
       d="m 169.05614,63.555376 c 2.38597,-1.483174 9.54307,-5.932186 11.70335,-6.867115 2.16027,-0.934928 7.96333,-2.095539 9.05898,-2.514409 1.09566,-0.418869 1.8694,-1.772919 2.1275,-2.224588"
       id="path10613"
       inkscape:path-effect="#path-effect12077"
       inkscape:original-d="m 169.05614,63.555376 c 2.3867,-1.482004 9.5438,-5.931016 11.9285,-7.41502 1.93535,-0.38587 7.73841,-1.54648 9.67176,-1.93435 0.25891,-0.450348 1.03266,-1.804394 1.28957,-2.256742" /><path
       style="opacity:1;fill:#000000;fill-opacity:0;stroke:#62beff;stroke-width:3.80999985;stroke-dasharray:none"
       d="m 81.687912,47.435774 c 5.997481,-0.06449 23.986958,-0.257923 27.436238,1.161205 3.44929,1.419128 6.15738,10.123705 7.0597,13.024037"
       id="path10615"
       inkscape:path-effect="#path-effect12079"
       inkscape:original-d="m 81.687912,47.435774 c 5.997492,-0.06348 23.986968,-0.256912 29.982458,-0.32239 0.9037,2.902526 3.61178,11.607106 4.51348,14.507632" /><path
       style="opacity:1;fill:#000000;fill-opacity:0;stroke:#62beff;stroke-width:3.80999985;stroke-dasharray:none"
       d="m 111.67037,71.615176 c 4.90137,0.06449 19.60243,0.257925 24.08377,0.806134 4.48133,0.548209 16.66775,3.643171 20.14955,4.352358 3.4818,0.709187 12.18638,1.869796 15.0868,2.256518"
       id="path10617"
       inkscape:path-effect="#path-effect12081"
       inkscape:original-d="m 111.67037,71.615176 c 4.90136,0.06548 19.60242,0.258912 24.50178,0.32239 4.06314,1.032654 16.24956,4.127616 20.3107,5.15827 2.90253,0.38787 11.60711,1.54848 14.50764,1.93435" /><path
       style="opacity:1;fill:#000000;fill-opacity:0;stroke:#62beff;stroke-width:2.28599997;stroke-dasharray:none"
       d="M 39.63017,60.16146 V 98.359213"
       id="path15795" /><path
       style="opacity:1;fill:#000000;fill-opacity:0;stroke:#62beff;stroke-width:2.28599997;stroke-dasharray:none"
       d="M 82.60264,83.557585 V 127.00753"
       id="path15797" /><path
       style="opacity:1;fill:#000000;fill-opacity:0;stroke:#62beff;stroke-width:2.28599997;stroke-dasharray:none"
       d="M 99.79163,86.422417 V 138.46685"
       id="path15799" /><path
       style="opacity:1;fill:#000000;fill-opacity:0;stroke:#62beff;stroke-width:2.28599997;stroke-dasharray:none"
       d="M 152.31354,153.74595 V 105.52129"
       id="path15801" /><path
       style="opacity:1;fill:#000000;fill-opacity:0;stroke:#62beff;stroke-width:2.28599997;stroke-dasharray:none"
       d="M 190.03381,94.061962 V 127.96246"
       id="path15803" /><path
       style="opacity:1;fill:#000000;fill-opacity:0;stroke:#62beff;stroke-width:2.28599997;stroke-dasharray:none"
       d="M 211.04258,71.620787 V 108.86359"
       id="path15805" /><path
       style="opacity:1;fill:#000000;fill-opacity:0;stroke:#62beff;stroke-width:2.286;stroke-dasharray:none"
       d="M 51.089493,56.341684 V 103.6114"
       id="path19437" /></g></svg>
